<svg xmlns="http://www.w3.org/2000/svg" xmlns:xlink="http://www.w3.org/1999/xlink" width="40" zoomAndPan="magnify" viewBox="0 0 30 30.000001" height="40" preserveAspectRatio="xMidYMid meet" version="1.0"><defs><clipPath id="f1fc9e7d5e"><path d="M 17.164062 5.191406 L 25.148438 5.191406 L 25.148438 16.800781 L 17.164062 16.800781 Z M 17.164062 5.191406 " clip-rule="nonzero"/></clipPath><clipPath id="155d0549b3"><path d="M 4.535156 12.964844 L 23.40625 12.964844 L 23.40625 23.851562 L 4.535156 23.851562 Z M 4.535156 12.964844 " clip-rule="nonzero"/></clipPath></defs><g clip-path="url(#f1fc9e7d5e)"><path fill="#12b259" d="M 24.820312 11.777344 L 21.636719 16.621094 C 21.5625 16.738281 21.449219 16.800781 21.3125 16.800781 C 21.179688 16.800781 21.0625 16.738281 20.988281 16.621094 L 17.808594 11.777344 C 17.398438 11.113281 17.164062 10.324219 17.164062 9.480469 C 17.164062 7.113281 19.019531 5.191406 21.3125 5.191406 C 23.605469 5.191406 25.464844 7.113281 25.464844 9.480469 C 25.464844 10.324219 25.226562 11.113281 24.820312 11.777344 Z M 22.636719 7.566406 L 20 7.566406 C 19.75 7.566406 19.546875 7.769531 19.546875 8.019531 L 19.546875 10.652344 C 19.546875 10.902344 19.75 11.105469 20 11.105469 L 22.636719 11.105469 C 22.882812 11.105469 23.085938 10.902344 23.085938 10.652344 L 23.085938 8.019531 C 23.085938 7.769531 22.882812 7.566406 22.636719 7.566406 Z M 22.207031 9.238281 C 22.15625 9.359375 22.082031 9.464844 21.988281 9.546875 C 21.894531 9.632812 21.777344 9.695312 21.640625 9.738281 C 21.507812 9.78125 21.351562 9.800781 21.171875 9.800781 L 21.035156 9.800781 L 21.035156 10.550781 C 21.035156 10.582031 21.023438 10.609375 21.003906 10.636719 C 20.984375 10.660156 20.960938 10.675781 20.925781 10.683594 C 20.902344 10.695312 20.867188 10.699219 20.832031 10.703125 C 20.792969 10.710938 20.746094 10.710938 20.691406 10.710938 C 20.640625 10.710938 20.59375 10.710938 20.558594 10.703125 C 20.515625 10.699219 20.484375 10.695312 20.460938 10.683594 C 20.425781 10.675781 20.398438 10.65625 20.382812 10.632812 C 20.363281 10.609375 20.355469 10.582031 20.355469 10.550781 L 20.355469 8.222656 C 20.355469 8.140625 20.378906 8.074219 20.425781 8.027344 C 20.476562 7.980469 20.535156 7.957031 20.609375 7.957031 L 21.21875 7.957031 C 21.28125 7.957031 21.527344 7.980469 21.609375 8 C 21.691406 8.015625 21.777344 8.042969 21.863281 8.089844 C 21.949219 8.136719 22.027344 8.195312 22.085938 8.265625 C 22.152344 8.335938 22.199219 8.417969 22.230469 8.511719 C 22.261719 8.605469 22.28125 8.710938 22.28125 8.820312 C 22.28125 8.976562 22.253906 9.117188 22.207031 9.238281 Z M 21.449219 8.570312 C 21.410156 8.550781 21.367188 8.535156 21.328125 8.53125 C 21.28125 8.523438 21.230469 8.519531 21.183594 8.519531 L 21.035156 8.519531 L 21.035156 9.242188 L 21.191406 9.242188 C 21.265625 9.242188 21.328125 9.234375 21.375 9.214844 C 21.421875 9.195312 21.457031 9.171875 21.484375 9.140625 C 21.515625 9.105469 21.535156 9.066406 21.550781 9.019531 C 21.566406 8.972656 21.574219 8.917969 21.574219 8.859375 C 21.574219 8.78125 21.5625 8.722656 21.539062 8.671875 C 21.511719 8.628906 21.480469 8.59375 21.449219 8.570312 Z M 21.3125 6.191406 C 19.617188 6.191406 18.246094 7.609375 18.246094 9.359375 C 18.246094 11.113281 19.617188 12.535156 21.3125 12.535156 C 23.007812 12.535156 24.382812 11.113281 24.382812 9.359375 C 24.382812 7.609375 23.007812 6.191406 21.3125 6.191406 Z M 21.3125 6.191406 " fill-opacity="1" fill-rule="evenodd"/></g><g clip-path="url(#155d0549b3)"><path fill="#12b259" d="M 11.050781 20.433594 L 8.582031 20.03125 L 10.140625 18.019531 C 10.945312 18.71875 11.046875 19.558594 11.050781 20.433594 Z M 11.730469 20.578125 C 11.734375 20.492188 11.75 20.351562 11.75 20.253906 C 11.75 19.257812 11.425781 18.292969 10.546875 17.488281 L 11.460938 16.398438 L 12.878906 20.695312 Z M 17.167969 16.304688 L 17.089844 16.0625 L 12.042969 16.058594 L 13.386719 20.101562 L 13.445312 19.679688 L 13.289062 19.679688 L 13.308594 19.410156 L 13.984375 19.410156 L 13.964844 19.660156 L 13.792969 19.660156 L 13.753906 20.121094 C 13.753906 20.121094 17.148438 16.324219 17.167969 16.304688 Z M 19.402344 20.1875 C 18.722656 19.652344 18.195312 19.144531 17.816406 18.125 C 17.214844 18.664062 16.875 19.449219 16.875 20.253906 C 16.875 21.851562 18.1875 23.15625 19.796875 23.15625 C 21.40625 23.15625 22.71875 21.851562 22.71875 20.253906 C 22.71875 18.652344 21.40625 17.347656 19.796875 17.347656 C 19.28125 17.347656 18.757812 17.496094 18.335938 17.746094 C 18.621094 18.644531 18.898438 19.109375 19.78125 19.816406 C 19.996094 19.824219 20.15625 19.996094 20.15625 20.199219 C 20.15625 20.410156 19.984375 20.582031 19.773438 20.582031 C 19.558594 20.582031 19.402344 20.410156 19.402344 20.1875 Z M 10.949219 21.046875 C 10.617188 22.273438 9.441406 23.15625 8.140625 23.15625 C 6.53125 23.15625 5.21875 21.851562 5.21875 20.253906 C 5.21875 18.652344 6.53125 17.347656 8.140625 17.347656 C 8.65625 17.347656 9.25 17.46875 9.683594 17.722656 L 8.097656 19.816406 C 7.902344 19.816406 7.734375 19.988281 7.734375 20.199219 C 7.734375 20.410156 7.910156 20.582031 8.121094 20.582031 C 8.179688 20.582031 8.242188 20.566406 8.292969 20.542969 Z M 18.125 17.070312 L 17.089844 14.234375 L 17.417969 13.675781 L 16.761719 12.96875 L 15.355469 12.96875 L 15.335938 13.371094 L 16.570312 13.371094 L 16.820312 13.636719 L 16.53125 14.15625 L 16.894531 15.4375 L 11.84375 15.4375 L 11.765625 15.203125 C 12.171875 15.152344 12.871094 14.902344 13.039062 14.757812 C 13.207031 14.613281 13.058594 14.480469 12.867188 14.476562 C 11.871094 14.433594 10.390625 14.347656 10.109375 14.347656 C 9.828125 14.347656 9.796875 14.488281 9.984375 14.691406 C 10.175781 14.898438 10.339844 15.082031 11.054688 15.191406 L 11.246094 15.710938 L 10.050781 17.183594 C 9.488281 16.84375 8.804688 16.664062 8.140625 16.664062 C 6.15625 16.664062 4.535156 18.277344 4.535156 20.253906 C 4.535156 22.230469 6.15625 23.839844 8.140625 23.839844 C 9.777344 23.839844 11.214844 22.71875 11.636719 21.171875 L 12.734375 21.367188 C 12.785156 21.496094 12.894531 21.59375 13.023438 21.671875 L 12.828125 22.59375 L 12.578125 22.59375 L 12.558594 22.84375 L 13.347656 22.882812 L 13.347656 22.613281 L 13.15625 22.613281 L 13.394531 21.691406 C 13.75 21.632812 13.9375 21.332031 13.832031 21.03125 L 17.421875 16.992188 L 17.582031 17.425781 C 16.710938 18.109375 16.1875 19.160156 16.1875 20.253906 C 16.1875 22.230469 17.808594 23.839844 19.796875 23.839844 C 21.785156 23.839844 23.40625 22.230469 23.40625 20.253906 C 23.40625 18.277344 21.785156 16.664062 19.796875 16.664062 C 19.21875 16.664062 18.625 16.804688 18.125 17.070312 Z M 18.125 17.070312 " fill-opacity="1" fill-rule="evenodd"/></g></svg>