<svg xmlns="http://www.w3.org/2000/svg" xmlns:xlink="http://www.w3.org/1999/xlink" width="40" zoomAndPan="magnify" viewBox="0 0 30 30.000001" height="40" preserveAspectRatio="xMidYMid meet" version="1.0"><defs><clipPath id="357be80f67"><path d="M 6.015625 2.253906 L 24 2.253906 L 24 26.929688 L 6.015625 26.929688 Z M 6.015625 2.253906 " clip-rule="nonzero"/></clipPath><clipPath id="a6aa019981"><path d="M 8 2.253906 L 22 2.253906 L 22 20 L 8 20 Z M 8 2.253906 " clip-rule="nonzero"/></clipPath><clipPath id="dc581b239d"><path d="M 6.015625 19 L 24 19 L 24 26.929688 L 6.015625 26.929688 Z M 6.015625 19 " clip-rule="nonzero"/></clipPath></defs><g clip-path="url(#357be80f67)"><path fill="#e00079" d="M 21.292969 19.546875 L 20.371094 19.546875 C 21.207031 18.035156 21.710938 16.1875 21.710938 13.921875 C 21.710938 6.703125 18.269531 2.253906 14.996094 2.253906 C 11.722656 2.253906 8.277344 6.707031 8.277344 13.921875 C 8.277344 16.105469 8.699219 18.035156 9.621094 19.546875 L 8.699219 19.546875 C 7.191406 19.546875 6.015625 20.722656 6.015625 22.234375 L 6.015625 25.59375 C 6.015625 26.265625 6.519531 26.769531 7.191406 26.769531 L 22.722656 26.769531 C 23.394531 26.769531 23.898438 26.265625 23.898438 25.59375 L 23.898438 22.234375 C 23.976562 20.808594 22.722656 19.546875 21.292969 19.546875 Z M 21.292969 19.546875 " fill-opacity="1" fill-rule="nonzero"/></g><g clip-path="url(#a6aa019981)"><path fill="#00b2d8" d="M 8.660156 13.835938 C 8.660156 8.378906 11.175781 2.582031 14.957031 2.582031 C 18.738281 2.582031 21.25 8.378906 21.25 13.835938 C 21.25 16.101562 20.746094 17.949219 19.910156 19.457031 L 10.003906 19.457031 C 9.078125 17.949219 8.660156 16.015625 8.660156 13.835938 Z M 8.660156 13.835938 " fill-opacity="1" fill-rule="nonzero"/></g><g clip-path="url(#dc581b239d)"><path fill="#00b2d8" d="M 23.476562 25.527344 C 23.476562 25.949219 23.144531 26.285156 22.722656 26.285156 L 7.191406 26.285156 C 6.769531 26.285156 6.4375 25.949219 6.4375 25.527344 L 6.4375 22.171875 C 6.4375 20.910156 7.441406 19.90625 8.699219 19.90625 L 21.210938 19.90625 C 22.472656 19.90625 23.476562 20.910156 23.476562 22.171875 Z M 23.476562 25.527344 " fill-opacity="1" fill-rule="nonzero"/></g><path fill="#e00079" d="M 15.078125 3.933594 C 12.140625 3.933594 10.210938 8.128906 10.210938 12.160156 C 10.210938 15.433594 11.804688 17.027344 15.078125 17.027344 C 18.355469 17.027344 19.949219 15.433594 19.949219 12.160156 C 19.949219 8.132812 17.9375 3.933594 15.078125 3.933594 Z M 15.078125 3.933594 " fill-opacity="1" fill-rule="nonzero"/><path fill="#00b2d8" d="M 15.078125 16.609375 C 12.058594 16.609375 10.628906 15.183594 10.628906 12.160156 C 10.628906 8.464844 12.476562 4.351562 15.078125 4.351562 C 17.683594 4.351562 19.53125 8.464844 19.53125 12.160156 C 19.53125 15.265625 18.105469 16.609375 15.078125 16.609375 Z M 15.078125 16.609375 " fill-opacity="1" fill-rule="nonzero"/></svg>